<svg xmlns="http://www.w3.org/2000/svg" xmlns:xlink="http://www.w3.org/1999/xlink" style="margin:auto;background:#f1f2f3;display:block;z-index:1;position:relative" width="1278" height="1351" preserveAspectRatio="xMidYMid" viewBox="0 0 1278 1351">
    <g transform="translate(639,675.5) scale(1,1) translate(-639,-675.5)"><path d="M-100 806.87C-73.74 797.78 -72.85 804.25 -52.32 804.25S-27.29 786.74 -4.65 786.74S20.46 792.24 43.03 792.24S69.1 795.98 90.71 795.98S116.51 791.5 138.39 791.5S165.49 815.41 186.06 815.41S213.12 792.88 233.74 792.88S260.21 814.97 281.42 814.97S305.91 791.45 329.1 791.45S355.75 786.13 376.77 786.13S401.89 792.47 424.45 792.47S450.98 802.23 472.13 802.23S498.06 783.74 519.81 783.74S545.39 814.11 567.48 814.11S592.89 808.2 615.16 808.2S641.4 792.21 662.84 792.21S688.2 800.33 710.52 800.33S735.32 795.53 758.19 795.53S784.22 813.32 805.87 813.32S831.73 796.6 853.55 796.6S878.91 816.16 901.23 816.16S926.26 786.48 948.9 786.48S975.23 812.34 996.58 812.34S1023.46 785.79 1044.26 785.79S1068.58 792.96 1091.94 792.96S1118.19 812.94 1139.61 812.94S1166.29 788.56 1187.29 788.56S1211.34 802.04 1234.97 802.04S1259.76 815.68 1282.65 815.68S1308.25 787.93 1330.32 787.93S1354.83 805.65 1378 805.65S1404.45 810.99 1425.68 810.99L1378 1351 L-100 1351 Z" fill="#706d5d" stroke-width="0">
        <animate attributeName="d" dur="25s" repeatCount="indefinite" values="M-100 806.87C-73.74 797.78 -72.85 804.25 -52.32 804.25S-27.29 786.74 -4.65 786.74S20.46 792.24 43.03 792.24S69.1 795.98 90.71 795.98S116.51 791.5 138.39 791.5S165.49 815.41 186.06 815.41S213.12 792.88 233.74 792.88S260.21 814.97 281.42 814.97S305.91 791.45 329.1 791.45S355.75 786.13 376.77 786.13S401.89 792.47 424.45 792.47S450.98 802.23 472.13 802.23S498.06 783.74 519.81 783.74S545.39 814.11 567.48 814.11S592.89 808.2 615.16 808.2S641.4 792.21 662.84 792.21S688.2 800.33 710.52 800.33S735.32 795.53 758.19 795.53S784.22 813.32 805.87 813.32S831.73 796.6 853.55 796.6S878.91 816.16 901.23 816.16S926.26 786.48 948.9 786.48S975.23 812.34 996.58 812.34S1023.46 785.79 1044.26 785.79S1068.58 792.96 1091.94 792.96S1118.19 812.94 1139.61 812.94S1166.29 788.56 1187.29 788.56S1211.34 802.04 1234.97 802.04S1259.76 815.68 1282.65 815.68S1308.25 787.93 1330.32 787.93S1354.83 805.65 1378 805.65S1404.45 810.99 1425.68 810.99L1378 1351 L-100 1351 Z;M-100 814.83C-75.06 806.37 -73.21 790.88 -52.32 790.88S-27.99 809.73 -4.65 809.73S22.43 806.6 43.03 806.6S68.58 796.44 90.71 796.44S115.88 793.76 138.39 793.76S163.12 796.73 186.06 796.73S210.77 798.42 233.74 798.42S258.76 814.67 281.42 814.67S306.64 813.1 329.1 813.1S355.46 814.95 376.77 814.95S403 796.05 424.45 796.05S450.04 786.24 472.13 786.24S499.27 789.65 519.81 789.65S545.54 795.29 567.48 795.29S594.35 797.36 615.16 797.36S639.6 802.1 662.84 802.1S687.94 805.31 710.52 805.31S735.04 790.86 758.19 790.86S784.11 806.18 805.87 806.18S832.82 806.76 853.55 806.76S878.51 813.62 901.23 813.62S926.14 788.41 948.9 788.41S973.74 795.16 996.58 795.16S1021.3 790.15 1044.26 790.15S1070.44 798.87 1091.94 798.87S1116.81 808.04 1139.61 808.04S1165.74 788.86 1187.29 788.86S1211.45 801.59 1234.97 801.59S1259.33 803.1 1282.65 803.1S1309.67 799.25 1330.32 799.25S1357.38 798.07 1378 798.07S1403.29 801.93 1425.68 801.93L1378 1351 L-100 1351 Z;M-100 806.87C-73.74 797.78 -72.85 804.25 -52.32 804.25S-27.29 786.74 -4.65 786.74S20.46 792.24 43.03 792.24S69.1 795.98 90.71 795.98S116.51 791.5 138.39 791.5S165.49 815.41 186.06 815.41S213.12 792.88 233.74 792.88S260.21 814.97 281.42 814.97S305.91 791.45 329.1 791.45S355.75 786.13 376.77 786.13S401.89 792.47 424.45 792.47S450.98 802.23 472.13 802.23S498.06 783.74 519.81 783.74S545.39 814.11 567.48 814.11S592.89 808.2 615.16 808.2S641.4 792.21 662.84 792.21S688.2 800.33 710.52 800.33S735.32 795.53 758.19 795.53S784.22 813.32 805.87 813.32S831.73 796.6 853.55 796.6S878.91 816.16 901.23 816.16S926.26 786.48 948.9 786.48S975.23 812.34 996.58 812.34S1023.46 785.79 1044.26 785.79S1068.58 792.96 1091.94 792.96S1118.19 812.94 1139.61 812.94S1166.29 788.56 1187.29 788.56S1211.34 802.04 1234.97 802.04S1259.76 815.68 1282.65 815.68S1308.25 787.93 1330.32 787.93S1354.83 805.65 1378 805.65S1404.45 810.99 1425.68 810.99L1378 1351 L-100 1351 Z"></animate>
        <animateTransform attributeName="transform" type="translate" dur="25s" begin="0s" repeatCount="indefinite" values="0;10;0" calcMode="spline" keySplines="0.3 0 0.7 1;0.3 0 0.7 1"></animateTransform>
    </path><path d="M-100 821.56C-73.39 832.42 -74.79 844.47 -51.06 844.47S-24.11 820.03 -2.12 820.03S25.67 833.41 46.82 833.41S72.08 826.5 95.76 826.5S121.29 836.2 144.7 836.2S171.47 839.52 193.64 839.52S218.34 838.63 242.58 838.63S268.31 845.38 291.52 845.38S317.26 842.42 340.46 842.42S366.88 831.51 389.4 831.51S417.23 846.06 438.34 846.06S463.07 823.01 487.28 823.01S512.76 850.94 536.23 850.94S562.54 839.12 585.17 839.12S610.09 827.05 634.11 827.05S660.63 822.54 683.05 822.54S707.86 840.4 731.99 840.4S758.61 843.13 780.93 843.13S806.72 826.74 829.87 826.74S857.67 828.63 878.81 828.63S904.03 848.67 927.75 848.67S954.54 825.19 976.69 825.19S1004.01 853.26 1025.63 853.26S1052.11 847.43 1074.57 847.43S1101.13 836.76 1123.51 836.76S1150.07 844.05 1172.45 844.05S1199.59 830.06 1221.39 830.06S1246.6 823.3 1270.33 823.3S1296.02 834.61 1319.27 834.61S1344.41 838.99 1368.21 838.99S1394.69 839.47 1417.15 839.47L1378 1351 L-100 1351 Z" fill="#777463" stroke-width="0">
        <animate attributeName="d" dur="22.5s" repeatCount="indefinite" values="M-100 821.56C-73.39 832.42 -74.79 844.47 -51.06 844.47S-24.11 820.03 -2.12 820.03S25.67 833.41 46.82 833.41S72.08 826.5 95.76 826.5S121.29 836.2 144.7 836.2S171.47 839.52 193.64 839.52S218.34 838.63 242.58 838.63S268.31 845.38 291.52 845.38S317.26 842.42 340.46 842.42S366.88 831.51 389.4 831.51S417.23 846.06 438.34 846.06S463.07 823.01 487.28 823.01S512.76 850.94 536.23 850.94S562.54 839.12 585.17 839.12S610.09 827.05 634.11 827.05S660.63 822.54 683.05 822.54S707.86 840.4 731.99 840.4S758.61 843.13 780.93 843.13S806.72 826.74 829.87 826.74S857.67 828.63 878.81 828.63S904.03 848.67 927.75 848.67S954.54 825.19 976.69 825.19S1004.01 853.26 1025.63 853.26S1052.11 847.43 1074.57 847.43S1101.13 836.76 1123.51 836.76S1150.07 844.05 1172.45 844.05S1199.59 830.06 1221.39 830.06S1246.6 823.3 1270.33 823.3S1296.02 834.61 1319.27 834.61S1344.41 838.99 1368.21 838.99S1394.69 839.47 1417.15 839.47L1378 1351 L-100 1351 Z;M-100 845.47C-74.43 845.94 -74.89 825.49 -51.06 825.49S-26.17 843.71 -2.12 843.71S24.66 837.59 46.82 837.59S74.04 822.77 95.76 822.77S121.62 832.14 144.7 832.14S170.7 829.74 193.64 829.74S219.42 837.46 242.58 837.46S269.48 848.08 291.52 848.08S319.25 852.9 340.46 852.9S365.74 832.4 389.4 832.4S414.67 850.29 438.34 850.29S464.47 826.82 487.28 826.82S511.98 818.44 536.23 818.44S561.7 826.77 585.17 826.77S610.98 824.93 634.11 824.93S659.45 835.99 683.05 835.99S710.35 846.69 731.99 846.69S759.16 837.01 780.93 837.01S806.49 831.13 829.87 831.13S855 846.72 878.81 846.72S906.43 845.83 927.75 845.83S954.2 849.2 976.69 849.2S1004.46 845.33 1025.63 845.33S1051.05 826.32 1074.57 826.32S1101.42 847.57 1123.51 847.57S1149.88 840.17 1172.45 840.17S1197.08 847.94 1221.39 847.94S1246.55 817.75 1270.33 817.75S1296.62 825.87 1319.27 825.87S1344.85 830.55 1368.21 830.55S1393.06 818.47 1417.15 818.47L1378 1351 L-100 1351 Z;M-100 821.56C-73.39 832.42 -74.79 844.47 -51.06 844.47S-24.11 820.03 -2.12 820.03S25.67 833.41 46.82 833.41S72.08 826.5 95.76 826.5S121.29 836.2 144.7 836.2S171.47 839.52 193.64 839.52S218.34 838.63 242.58 838.63S268.31 845.38 291.52 845.38S317.26 842.42 340.46 842.42S366.88 831.51 389.4 831.51S417.23 846.06 438.34 846.06S463.07 823.01 487.28 823.01S512.76 850.94 536.23 850.94S562.54 839.12 585.17 839.12S610.09 827.05 634.11 827.05S660.63 822.54 683.05 822.54S707.86 840.4 731.99 840.4S758.61 843.13 780.93 843.13S806.72 826.74 829.87 826.74S857.67 828.63 878.81 828.63S904.03 848.67 927.75 848.67S954.54 825.19 976.69 825.19S1004.01 853.26 1025.63 853.26S1052.11 847.43 1074.57 847.43S1101.13 836.76 1123.51 836.76S1150.07 844.05 1172.45 844.05S1199.59 830.06 1221.39 830.06S1246.6 823.3 1270.33 823.3S1296.02 834.61 1319.27 834.61S1344.41 838.99 1368.21 838.99S1394.69 839.47 1417.15 839.47L1378 1351 L-100 1351 Z"></animate>
        <animateTransform attributeName="transform" type="translate" dur="22.5s" begin="-2.25s" repeatCount="indefinite" values="0;10;0" calcMode="spline" keySplines="0.3 0 0.7 1;0.3 0 0.7 1"></animateTransform>
    </path><path d="M-100 877.82C-74.33 856.45 -74.79 884.51 -49.73 884.51S-24.4 878.01 0.54 878.01S27.9 876.23 50.82 876.23S76.65 883.52 101.09 883.52S129.44 882.29 151.36 882.29S177.75 858.03 201.63 858.03S229.62 893.01 251.9 893.01S278.37 859.55 302.18 859.55S330.36 881.17 352.45 881.17S378.31 868.42 402.72 868.42S428.81 860.42 452.99 860.42S479.59 866.12 503.27 866.12S529.2 870.4 553.54 870.4S579.34 863.14 603.81 863.14S630.58 876.42 654.08 876.42S682.59 874.58 704.35 874.58S732 869.04 754.63 869.04S780.98 859.95 804.9 859.95S832.61 890.23 855.17 890.23S882.97 875.98 905.44 875.98S931.59 878.57 955.71 878.57S980.91 885.52 1005.99 885.52S1034.08 887.85 1056.26 887.85S1082.2 860.23 1106.53 860.23S1131.92 894.95 1156.8 894.95S1182.62 864.04 1207.07 864.04S1234.3 868.29 1257.35 868.29S1282.87 876.13 1307.62 876.13S1332.94 871 1357.89 871S1384.39 883.84 1408.16 883.84L1378 1351 L-100 1351 Z" fill="#7d7a68" stroke-width="0">
        <animate attributeName="d" dur="20s" repeatCount="indefinite" values="M-100 877.82C-74.33 856.45 -74.79 884.51 -49.73 884.51S-24.4 878.01 0.54 878.01S27.9 876.23 50.82 876.23S76.65 883.52 101.09 883.52S129.44 882.29 151.36 882.29S177.75 858.03 201.63 858.03S229.62 893.01 251.9 893.01S278.37 859.55 302.18 859.55S330.36 881.17 352.45 881.17S378.31 868.42 402.72 868.42S428.81 860.42 452.99 860.42S479.59 866.12 503.27 866.12S529.2 870.4 553.54 870.4S579.34 863.14 603.81 863.14S630.58 876.42 654.08 876.42S682.59 874.58 704.35 874.58S732 869.04 754.63 869.04S780.98 859.95 804.9 859.95S832.61 890.23 855.17 890.23S882.97 875.98 905.44 875.98S931.59 878.57 955.71 878.57S980.91 885.52 1005.99 885.52S1034.08 887.85 1056.26 887.85S1082.2 860.23 1106.53 860.23S1131.92 894.95 1156.8 894.95S1182.62 864.04 1207.07 864.04S1234.3 868.29 1257.35 868.29S1282.87 876.13 1307.62 876.13S1332.94 871 1357.89 871S1384.39 883.84 1408.16 883.84L1378 1351 L-100 1351 Z;M-100 854.57C-73.51 870.03 -74.82 887.98 -49.73 887.98S-23.27 873.98 0.54 873.98S27.91 869.18 50.82 869.18S78.13 880.12 101.09 880.12S128.66 853.16 151.36 853.16S178.89 857.48 201.63 857.48S228.3 890.16 251.9 890.16S277.76 867.45 302.18 867.45S327.49 877.68 352.45 877.68S377.61 856.62 402.72 856.62S429.98 884.51 452.99 884.51S478.79 886.45 503.27 886.45S528.61 873.57 553.54 873.57S580.45 873.17 603.81 873.17S632.2 885.36 654.08 885.36S680.8 880.26 704.35 880.26S729.66 867.24 754.63 867.24S781.56 868.94 804.9 868.94S833.1 866.82 855.17 866.82S883.22 878.41 905.44 878.41S933.44 866.48 955.71 866.48S983.8 866.31 1005.99 866.31S1031.58 870 1056.26 870S1084.19 851.8 1106.53 851.8S1132.33 883.52 1156.8 883.52S1183.92 859.01 1207.07 859.01S1233.72 888.15 1257.35 888.15S1285.06 887.54 1307.62 887.54S1334.62 879.22 1357.89 879.22S1384.43 874.94 1408.16 874.94L1378 1351 L-100 1351 Z;M-100 877.82C-74.33 856.45 -74.79 884.51 -49.73 884.51S-24.4 878.01 0.54 878.01S27.9 876.23 50.82 876.23S76.65 883.52 101.09 883.52S129.44 882.29 151.36 882.29S177.75 858.03 201.63 858.03S229.62 893.01 251.9 893.01S278.37 859.55 302.18 859.55S330.36 881.17 352.45 881.17S378.31 868.42 402.72 868.42S428.81 860.42 452.99 860.42S479.59 866.12 503.27 866.12S529.2 870.4 553.54 870.4S579.34 863.14 603.81 863.14S630.58 876.42 654.08 876.42S682.59 874.58 704.35 874.58S732 869.04 754.63 869.04S780.98 859.95 804.9 859.95S832.61 890.23 855.17 890.23S882.97 875.98 905.44 875.98S931.59 878.57 955.71 878.57S980.91 885.52 1005.99 885.52S1034.08 887.85 1056.26 887.85S1082.2 860.23 1106.53 860.23S1131.92 894.95 1156.8 894.95S1182.62 864.04 1207.07 864.04S1234.3 868.29 1257.35 868.29S1282.87 876.13 1307.62 876.13S1332.94 871 1357.89 871S1384.39 883.84 1408.16 883.84L1378 1351 L-100 1351 Z"></animate>
        <animateTransform attributeName="transform" type="translate" dur="20s" begin="-4s" repeatCount="indefinite" values="0;10;0" calcMode="spline" keySplines="0.3 0 0.7 1;0.3 0 0.7 1"></animateTransform>
    </path><path d="M-100 891.85C-72.45 911.83 -71.21 935.1 -48.32 935.1S-21.12 911.52 3.36 911.52S30.25 906.93 55.03 906.93S83 887.21 106.71 887.21S133.24 924.27 158.39 924.27S185.8 905.79 210.07 905.79S236.52 891.47 261.75 891.47S288.1 916.56 313.43 916.56S340.09 922.55 365.1 922.55S390.98 903.41 416.78 903.41S442.79 930.64 468.46 930.64S496.11 894.05 520.14 894.05S548.1 935.62 571.82 935.62S597.77 900.99 623.5 900.99S652.68 913.04 675.17 913.04S701.88 899.09 726.85 899.09S754.49 909.87 778.53 909.87S807.29 903.62 830.21 903.62S857.82 906.34 881.89 906.34S907.77 895.34 933.57 895.34S959.57 920.24 985.24 920.24S1011.54 917.59 1036.92 917.59S1065.04 923.22 1088.6 923.22S1115.77 912.1 1140.28 912.1S1168.76 920.14 1191.96 920.14S1219.14 910.51 1243.64 910.51S1272.19 915.52 1295.31 915.52S1324.19 900.13 1346.99 900.13S1374.54 917.8 1398.67 917.8L1378 1351 L-100 1351 Z" fill="#84816e" stroke-width="0">
        <animate attributeName="d" dur="17.5s" repeatCount="indefinite" values="M-100 891.85C-72.45 911.83 -71.21 935.1 -48.32 935.1S-21.12 911.52 3.36 911.52S30.25 906.93 55.03 906.93S83 887.21 106.71 887.21S133.24 924.27 158.39 924.27S185.8 905.79 210.07 905.79S236.52 891.47 261.75 891.47S288.1 916.56 313.43 916.56S340.09 922.55 365.1 922.55S390.98 903.41 416.78 903.41S442.79 930.64 468.46 930.64S496.11 894.05 520.14 894.05S548.1 935.62 571.82 935.62S597.77 900.99 623.5 900.99S652.68 913.04 675.17 913.04S701.88 899.09 726.85 899.09S754.49 909.87 778.53 909.87S807.29 903.62 830.21 903.62S857.82 906.34 881.89 906.34S907.77 895.34 933.57 895.34S959.57 920.24 985.24 920.24S1011.54 917.59 1036.92 917.59S1065.04 923.22 1088.6 923.22S1115.77 912.1 1140.28 912.1S1168.76 920.14 1191.96 920.14S1219.14 910.51 1243.64 910.51S1272.19 915.52 1295.31 915.52S1324.19 900.13 1346.99 900.13S1374.54 917.8 1398.67 917.8L1378 1351 L-100 1351 Z;M-100 890.22C-72.89 899.37 -72.34 922.66 -48.32 922.66S-20.5 914.33 3.36 914.33S29.24 918.41 55.03 918.41S82.18 927.38 106.71 927.38S135.45 923.8 158.39 923.8S187.5 908.84 210.07 908.84S236.6 907.23 261.75 907.23S290.48 885.08 313.43 885.08S340.15 916.02 365.1 916.02S392.25 893.56 416.78 893.56S445.47 908.5 468.46 908.5S496.66 915.75 520.14 915.75S548.1 886.12 571.82 886.12S598.45 904.95 623.5 904.95S651.43 919.14 675.17 919.14S703.83 917.05 726.85 917.05S755.22 928.43 778.53 928.43S805.27 916.48 830.21 916.48S857.28 905.27 881.89 905.27S909.49 921.52 933.57 921.52S961.93 931.21 985.24 931.21S1013.15 912.19 1036.92 912.19S1065.96 929.95 1088.6 929.95S1115.61 932.72 1140.28 932.72S1166.22 913.47 1191.96 913.47S1221.17 913.92 1243.64 913.92S1271.34 918.19 1295.31 918.19S1321.4 917.44 1346.99 917.44S1375.13 919.67 1398.67 919.67L1378 1351 L-100 1351 Z;M-100 891.85C-72.45 911.83 -71.21 935.1 -48.32 935.1S-21.12 911.52 3.36 911.52S30.25 906.93 55.03 906.93S83 887.21 106.71 887.21S133.24 924.27 158.39 924.27S185.8 905.79 210.07 905.79S236.52 891.47 261.75 891.47S288.1 916.56 313.43 916.56S340.09 922.55 365.1 922.55S390.98 903.41 416.78 903.41S442.79 930.64 468.46 930.64S496.11 894.05 520.14 894.05S548.1 935.62 571.82 935.62S597.77 900.99 623.5 900.99S652.68 913.04 675.17 913.04S701.88 899.09 726.85 899.09S754.49 909.87 778.53 909.87S807.29 903.62 830.21 903.62S857.82 906.34 881.89 906.34S907.77 895.34 933.57 895.34S959.57 920.24 985.24 920.24S1011.54 917.59 1036.92 917.59S1065.04 923.22 1088.6 923.22S1115.77 912.1 1140.28 912.1S1168.76 920.14 1191.96 920.14S1219.14 910.51 1243.64 910.51S1272.19 915.52 1295.31 915.52S1324.19 900.13 1346.99 900.13S1374.54 917.8 1398.67 917.8L1378 1351 L-100 1351 Z"></animate>
        <animateTransform attributeName="transform" type="translate" dur="17.5s" begin="-5.25s" repeatCount="indefinite" values="0;10;0" calcMode="spline" keySplines="0.3 0 0.7 1;0.3 0 0.7 1"></animateTransform>
    </path><path d="M-100 930.01C-72.52 928.28 -71.38 972.32 -46.83 972.32S-19.68 943.39 6.33 943.39S33.91 951.3 59.5 951.3S87.98 932.23 112.66 932.23S140.63 965.62 165.83 965.62S194.05 927.07 218.99 927.07S246.41 973.28 272.16 973.28S301.24 934.43 325.32 934.43S352.98 962.84 378.49 962.84S406.21 932.86 431.65 932.86S461.25 959.86 484.82 959.86S513.6 921.48 537.99 921.48S564.68 951.35 591.15 951.35S620.36 926.14 644.32 926.14S672.33 968.27 697.48 968.27S724.54 918.79 750.65 918.79S779.12 947.45 803.81 947.45S832.85 933.98 856.98 933.98S886.77 949.8 910.14 949.8S938.36 920.33 963.31 920.33S993.23 961.01 1016.47 961.01S1045.16 949.11 1069.64 949.11S1098.8 955.33 1122.81 955.33S1150.13 968.74 1175.97 968.74S1203.28 947.06 1229.14 947.06S1257.07 942.27 1282.3 942.27S1310.59 965.88 1335.47 965.88S1364.62 937.99 1388.63 937.99L1378 1351 L-100 1351 Z" fill="#8b8774" stroke-width="0">
        <animate attributeName="d" dur="15s" repeatCount="indefinite" values="M-100 930.01C-72.52 928.28 -71.38 972.32 -46.83 972.32S-19.68 943.39 6.33 943.39S33.91 951.3 59.5 951.3S87.98 932.23 112.66 932.23S140.63 965.62 165.83 965.62S194.05 927.07 218.99 927.07S246.41 973.28 272.16 973.28S301.24 934.43 325.32 934.43S352.98 962.84 378.49 962.84S406.21 932.86 431.65 932.86S461.25 959.86 484.82 959.86S513.6 921.48 537.99 921.48S564.68 951.35 591.15 951.35S620.36 926.14 644.32 926.14S672.33 968.27 697.48 968.27S724.54 918.79 750.65 918.79S779.12 947.45 803.81 947.45S832.85 933.98 856.98 933.98S886.77 949.8 910.14 949.8S938.36 920.33 963.31 920.33S993.23 961.01 1016.47 961.01S1045.16 949.11 1069.64 949.11S1098.8 955.33 1122.81 955.33S1150.13 968.74 1175.97 968.74S1203.28 947.06 1229.14 947.06S1257.07 942.27 1282.3 942.27S1310.59 965.88 1335.47 965.88S1364.62 937.99 1388.63 937.99L1378 1351 L-100 1351 Z;M-100 920.62C-73.34 951.86 -70.7 956.46 -46.83 956.46S-18.52 923.45 6.33 923.45S33.36 951.16 59.5 951.16S86.3 933.89 112.66 933.89S142.07 957.63 165.83 957.63S193.07 961.13 218.99 961.13S248.44 946.42 272.16 946.42S299.89 940.16 325.32 940.16S354.16 964.87 378.49 964.87S407.51 947.61 431.65 947.61S458.32 976.33 484.82 976.33S513.72 966.51 537.99 966.51S567.81 964.13 591.15 964.13S621.05 927.3 644.32 927.3S671.16 955.53 697.48 955.53S725.82 933.77 750.65 933.77S779.5 975.36 803.81 975.36S831.67 941.34 856.98 941.34S884.28 975.45 910.14 975.45S938.37 943.03 963.31 943.03S991.37 952.9 1016.47 952.9S1044.24 927.84 1069.64 927.84S1096.41 970.3 1122.81 970.3S1150.86 921.5 1175.97 921.5S1202.58 954.56 1229.14 954.56S1258.92 933.15 1282.3 933.15S1309.58 962.06 1335.47 962.06S1364.38 940.17 1388.63 940.17L1378 1351 L-100 1351 Z;M-100 930.01C-72.52 928.28 -71.38 972.32 -46.83 972.32S-19.68 943.39 6.33 943.39S33.91 951.3 59.5 951.3S87.98 932.23 112.66 932.23S140.63 965.62 165.83 965.62S194.05 927.07 218.99 927.07S246.41 973.28 272.16 973.28S301.24 934.43 325.32 934.43S352.98 962.84 378.49 962.84S406.21 932.86 431.65 932.86S461.25 959.86 484.82 959.86S513.6 921.48 537.99 921.48S564.68 951.35 591.15 951.35S620.36 926.14 644.32 926.14S672.33 968.27 697.48 968.27S724.54 918.79 750.65 918.79S779.12 947.45 803.81 947.45S832.85 933.98 856.98 933.98S886.77 949.8 910.14 949.8S938.36 920.33 963.31 920.33S993.23 961.01 1016.47 961.01S1045.16 949.11 1069.64 949.11S1098.8 955.33 1122.81 955.33S1150.13 968.74 1175.97 968.74S1203.28 947.06 1229.14 947.06S1257.07 942.27 1282.3 942.27S1310.59 965.88 1335.47 965.88S1364.62 937.99 1388.63 937.99L1378 1351 L-100 1351 Z"></animate>
        <animateTransform attributeName="transform" type="translate" dur="15s" begin="-6s" repeatCount="indefinite" values="0;10;0" calcMode="spline" keySplines="0.3 0 0.7 1;0.3 0 0.7 1"></animateTransform>
    </path><path d="M-100 966.85C-70.32 963.48 -71.13 1012.66 -45.26 1012.66S-15.96 971.97 9.48 971.97S37.62 986.23 64.22 986.23S92 965.26 118.96 965.26S147.03 995.29 173.7 995.29S202.4 968.6 228.44 968.6S258.77 994.01 283.19 994.01S311.1 970.17 337.93 970.17S367.63 1018.65 392.67 1018.65S420.4 973.14 447.41 973.14S475.18 1004.45 502.15 1004.45S529.82 992.09 556.89 992.09S585.24 996.76 611.63 996.76S641.89 1012.88 666.37 1012.88S694.13 1002.54 721.11 1002.54S751.36 962.31 775.85 962.31S803.87 989.58 830.59 989.58S858.52 1003.76 885.33 1003.76S914.63 1010.5 940.07 1010.5S968.8 957.19 994.81 957.19S1024.5 1014.63 1049.56 1014.63S1079.66 963.15 1104.3 963.15S1133.48 993.17 1159.04 993.17S1187.01 981.55 1213.78 981.55S1244.41 990.7 1268.52 990.7S1296.58 989.8 1323.26 989.8S1353.3 1008.87 1378 1008.87S1408.45 968.02 1432.74 968.02L1378 1351 L-100 1351 Z" fill="#918e79" stroke-width="0">
        <animate attributeName="d" dur="12.5s" repeatCount="indefinite" values="M-100 966.85C-70.32 963.48 -71.13 1012.66 -45.26 1012.66S-15.96 971.97 9.48 971.97S37.62 986.23 64.22 986.23S92 965.26 118.96 965.26S147.03 995.29 173.7 995.29S202.4 968.6 228.44 968.6S258.77 994.01 283.19 994.01S311.1 970.17 337.93 970.17S367.63 1018.65 392.67 1018.65S420.4 973.14 447.41 973.14S475.18 1004.45 502.15 1004.45S529.82 992.09 556.89 992.09S585.24 996.76 611.63 996.76S641.89 1012.88 666.37 1012.88S694.13 1002.54 721.11 1002.54S751.36 962.31 775.85 962.31S803.87 989.58 830.59 989.58S858.52 1003.76 885.33 1003.76S914.63 1010.5 940.07 1010.5S968.8 957.19 994.81 957.19S1024.5 1014.63 1049.56 1014.63S1079.66 963.15 1104.3 963.15S1133.48 993.17 1159.04 993.17S1187.01 981.55 1213.78 981.55S1244.41 990.7 1268.52 990.7S1296.58 989.8 1323.26 989.8S1353.3 1008.87 1378 1008.87S1408.45 968.02 1432.74 968.02L1378 1351 L-100 1351 Z;M-100 961.21C-70.97 982.65 -71.66 996.68 -45.26 996.68S-15.44 982.28 9.48 982.28S39.71 1000.23 64.22 1000.23S94.46 981.11 118.96 981.11S147.96 1001.64 173.7 1001.64S203.15 959.46 228.44 959.46S258.6 1017.43 283.19 1017.43S312.32 985.76 337.93 985.76S367.89 1017.75 392.67 1017.75S421.57 955.47 447.41 955.47S475.56 1014.72 502.15 1014.72S531.09 986.93 556.89 986.93S586.78 992.32 611.63 992.32S639.96 979.59 666.37 979.59S695.14 998.09 721.11 998.09S751.01 972.06 775.85 972.06S804.77 1017.12 830.59 1017.12S860.83 953.69 885.33 953.69S915.42 1018.9 940.07 1018.9S970.07 957.69 994.81 957.69S1023.15 1014.03 1049.56 1014.03S1080.05 956.95 1104.3 956.95S1133.88 975.21 1159.04 975.21S1187.32 981.33 1213.78 981.33S1244.47 1000.16 1268.52 1000.16S1296.51 982.55 1323.26 982.55S1351.37 995.51 1378 995.51S1406.14 983.31 1432.74 983.31L1378 1351 L-100 1351 Z;M-100 966.85C-70.32 963.48 -71.13 1012.66 -45.26 1012.66S-15.96 971.97 9.48 971.97S37.62 986.23 64.22 986.23S92 965.26 118.96 965.26S147.03 995.29 173.7 995.29S202.4 968.6 228.44 968.6S258.77 994.01 283.19 994.01S311.1 970.17 337.93 970.17S367.63 1018.65 392.67 1018.65S420.4 973.14 447.41 973.14S475.18 1004.45 502.15 1004.45S529.82 992.09 556.89 992.09S585.24 996.76 611.63 996.76S641.89 1012.88 666.37 1012.88S694.13 1002.54 721.11 1002.54S751.36 962.31 775.85 962.31S803.87 989.58 830.59 989.58S858.52 1003.76 885.33 1003.76S914.63 1010.5 940.07 1010.5S968.8 957.19 994.81 957.19S1024.5 1014.63 1049.56 1014.63S1079.66 963.15 1104.3 963.15S1133.48 993.17 1159.04 993.17S1187.01 981.55 1213.78 981.55S1244.41 990.7 1268.52 990.7S1296.58 989.8 1323.26 989.8S1353.3 1008.87 1378 1008.87S1408.45 968.02 1432.74 968.02L1378 1351 L-100 1351 Z"></animate>
        <animateTransform attributeName="transform" type="translate" dur="12.5s" begin="-6.25s" repeatCount="indefinite" values="0;10;0" calcMode="spline" keySplines="0.3 0 0.7 1;0.3 0 0.7 1"></animateTransform>
    </path><path d="M-100 1017.8C-68.58 1008.82 -68.96 1029.87 -43.59 1029.87S-14.29 999.29 12.82 999.29S41.75 994.77 69.24 994.77S98.08 989.4 125.65 989.4S154.55 1010.08 182.06 1010.08S212.81 1018.26 238.47 1018.26S269.16 1057.95 294.89 1057.95S326.23 1003.06 351.3 1003.06S381.82 1059.35 407.71 1059.35S436.76 996.06 464.12 996.06S495.18 1038.64 520.53 1038.64S549.7 1011.36 576.95 1011.36S605.57 1053.23 633.36 1053.23S661.83 994.11 689.77 994.11S719.11 1012.59 746.18 1012.59S776.31 992.56 802.6 992.56S832.01 1060.39 859.01 1060.39S888.43 1018.11 915.42 1018.11S946 1006.78 971.83 1006.78S1000.79 1017.89 1028.24 1017.89S1057.57 1040.41 1084.66 1040.41S1112.94 1003.45 1141.07 1003.45S1169.45 1028.74 1197.48 1028.74S1229.03 1019.65 1253.89 1019.65S1283.41 1046.32 1310.31 1046.32S1340.89 990.98 1366.72 990.98S1397.56 1053.74 1423.13 1053.74L1378 1351 L-100 1351 Z" fill="#98957f" stroke-width="0">
        <animate attributeName="d" dur="10s" repeatCount="indefinite" values="M-100 1017.8C-68.58 1008.82 -68.96 1029.87 -43.59 1029.87S-14.29 999.29 12.82 999.29S41.75 994.77 69.24 994.77S98.08 989.4 125.65 989.4S154.55 1010.08 182.06 1010.08S212.81 1018.26 238.47 1018.26S269.16 1057.95 294.89 1057.95S326.23 1003.06 351.3 1003.06S381.82 1059.35 407.71 1059.35S436.76 996.06 464.12 996.06S495.18 1038.64 520.53 1038.64S549.7 1011.36 576.95 1011.36S605.57 1053.23 633.36 1053.23S661.83 994.11 689.77 994.11S719.11 1012.59 746.18 1012.59S776.31 992.56 802.6 992.56S832.01 1060.39 859.01 1060.39S888.43 1018.11 915.42 1018.11S946 1006.78 971.83 1006.78S1000.79 1017.89 1028.24 1017.89S1057.57 1040.41 1084.66 1040.41S1112.94 1003.45 1141.07 1003.45S1169.45 1028.74 1197.48 1028.74S1229.03 1019.65 1253.89 1019.65S1283.41 1046.32 1310.31 1046.32S1340.89 990.98 1366.72 990.98S1397.56 1053.74 1423.13 1053.74L1378 1351 L-100 1351 Z;M-100 988.91C-71.2 989.7 -70.64 1050.6 -43.59 1050.6S-13.51 992.56 12.82 992.56S42.18 1042.62 69.24 1042.62S99.84 987.28 125.65 987.28S154.51 1043.66 182.06 1043.66S211.99 995.71 238.47 995.71S268.89 1059.4 294.89 1059.4S326.22 1037.69 351.3 1037.69S379.73 1028.59 407.71 1028.59S436.25 1006.17 464.12 1006.17S495.35 1031.24 520.53 1031.24S550.62 1056.9 576.95 1056.9S607.57 1014.71 633.36 1014.71S663.09 998.73 689.77 998.73S720.93 1029.98 746.18 1029.98S775.63 1018.62 802.6 1018.62S831 1028.92 859.01 1028.92S887.75 997.89 915.42 997.89S944.77 1049.09 971.83 1049.09S1002.37 1009.26 1028.24 1009.26S1057.18 1059.27 1084.66 1059.27S1114.14 1060.09 1141.07 1060.09S1172.26 1035.72 1197.48 1035.72S1227.61 1019.45 1253.89 1019.45S1282.15 1051.91 1310.31 1051.91S1340.78 1009.15 1366.72 1009.15S1397.6 1047.35 1423.13 1047.35L1378 1351 L-100 1351 Z;M-100 1017.8C-68.58 1008.82 -68.96 1029.87 -43.59 1029.87S-14.29 999.29 12.82 999.29S41.75 994.77 69.24 994.77S98.08 989.4 125.65 989.4S154.55 1010.08 182.06 1010.08S212.81 1018.26 238.47 1018.26S269.16 1057.95 294.89 1057.95S326.23 1003.06 351.3 1003.06S381.82 1059.35 407.71 1059.35S436.76 996.06 464.12 996.06S495.18 1038.64 520.53 1038.64S549.7 1011.36 576.95 1011.36S605.57 1053.23 633.36 1053.23S661.83 994.11 689.77 994.11S719.11 1012.59 746.18 1012.59S776.31 992.56 802.6 992.56S832.01 1060.39 859.01 1060.39S888.43 1018.11 915.42 1018.11S946 1006.78 971.83 1006.78S1000.79 1017.89 1028.24 1017.89S1057.57 1040.41 1084.66 1040.41S1112.94 1003.45 1141.07 1003.45S1169.45 1028.74 1197.48 1028.74S1229.03 1019.65 1253.89 1019.65S1283.41 1046.32 1310.31 1046.32S1340.89 990.98 1366.72 990.98S1397.56 1053.74 1423.13 1053.74L1378 1351 L-100 1351 Z"></animate>
        <animateTransform attributeName="transform" type="translate" dur="10s" begin="-6s" repeatCount="indefinite" values="0;10;0" calcMode="spline" keySplines="0.3 0 0.7 1;0.3 0 0.7 1"></animateTransform>
    </path><path d="M-100 1075.53C-70.15 1085.26 -70.06 1076.3 -41.81 1076.3S-9.99 1036.35 16.38 1036.35S46.83 1073.62 74.57 1073.62S103.9 1042.64 132.76 1042.64S162.78 1073.45 190.94 1073.45S221.97 1022.45 249.13 1022.45S279.14 1077.87 307.32 1077.87S336.82 1075.73 365.51 1075.73S395.26 1088.29 423.7 1088.29S455.75 1092.17 481.89 1092.17S512.96 1094.81 540.08 1094.81S571.86 1096.6 598.27 1096.6S628.95 1087.65 656.46 1087.65S686.39 1021.31 714.65 1021.31S746.99 1071.5 772.83 1071.5S804.01 1033.96 831.02 1033.96S860.92 1092.23 889.21 1092.23S918.75 1024.05 947.4 1024.05S977.75 1076.5 1005.59 1076.5S1036.93 1074.77 1063.78 1074.77S1092.88 1072.62 1121.97 1072.62S1153.34 1037.78 1180.16 1037.78S1210.06 1089.74 1238.35 1089.74S1267.84 1023.88 1296.54 1023.88S1328.16 1079.58 1354.72 1079.58S1386.11 1021.85 1412.91 1021.85L1378 1351 L-100 1351 Z" fill="#9f9c85" stroke-width="0">
        <animate attributeName="d" dur="7.5s" repeatCount="indefinite" values="M-100 1075.53C-70.15 1085.26 -70.06 1076.3 -41.81 1076.3S-9.99 1036.35 16.38 1036.35S46.83 1073.62 74.57 1073.62S103.9 1042.64 132.76 1042.64S162.78 1073.45 190.94 1073.45S221.97 1022.45 249.13 1022.45S279.14 1077.87 307.32 1077.87S336.82 1075.73 365.51 1075.73S395.26 1088.29 423.7 1088.29S455.75 1092.17 481.89 1092.17S512.96 1094.81 540.08 1094.81S571.86 1096.6 598.27 1096.6S628.95 1087.65 656.46 1087.65S686.39 1021.31 714.65 1021.31S746.99 1071.5 772.83 1071.5S804.01 1033.96 831.02 1033.96S860.92 1092.23 889.21 1092.23S918.75 1024.05 947.4 1024.05S977.75 1076.5 1005.59 1076.5S1036.93 1074.77 1063.78 1074.77S1092.88 1072.62 1121.97 1072.62S1153.34 1037.78 1180.16 1037.78S1210.06 1089.74 1238.35 1089.74S1267.84 1023.88 1296.54 1023.88S1328.16 1079.58 1354.72 1079.58S1386.11 1021.85 1412.91 1021.85L1378 1351 L-100 1351 Z;M-100 1034.34C-70.67 1052.88 -68.17 1068.93 -41.81 1068.93S-12.44 1048.03 16.38 1048.03S48.56 1070.62 74.57 1070.62S104.25 1034.04 132.76 1034.04S164.88 1089.57 190.94 1089.57S220.16 1035.88 249.13 1035.88S279.07 1092.32 307.32 1092.32S339.48 1031.15 365.51 1031.15S397.01 1028.05 423.7 1028.05S453.15 1020.1 481.89 1020.1S512.93 1087.21 540.08 1087.21S572.19 1021.84 598.27 1021.84S627.99 1074.18 656.46 1074.18S688.64 1033.57 714.65 1033.57S746.21 1082.15 772.83 1082.15S804.51 1022.22 831.02 1022.22S863.35 1069.81 889.21 1069.81S920.09 1024.62 947.4 1024.62S978.68 1100.49 1005.59 1100.49S1037.81 1031.44 1063.78 1031.44S1094.38 1083.98 1121.97 1083.98S1151.32 1098.66 1180.16 1098.66S1211.1 1084.15 1238.35 1084.15S1270.38 1051.87 1296.54 1051.87S1327.87 1042.18 1354.72 1042.18S1387.15 1051.88 1412.91 1051.88L1378 1351 L-100 1351 Z;M-100 1075.53C-70.15 1085.26 -70.06 1076.3 -41.81 1076.3S-9.99 1036.35 16.38 1036.35S46.83 1073.62 74.57 1073.62S103.9 1042.64 132.76 1042.64S162.78 1073.45 190.94 1073.45S221.97 1022.45 249.13 1022.45S279.14 1077.87 307.32 1077.87S336.82 1075.73 365.51 1075.73S395.26 1088.29 423.7 1088.29S455.75 1092.17 481.89 1092.17S512.96 1094.81 540.08 1094.81S571.86 1096.6 598.27 1096.6S628.95 1087.65 656.46 1087.65S686.39 1021.31 714.65 1021.31S746.99 1071.5 772.83 1071.5S804.01 1033.96 831.02 1033.96S860.92 1092.23 889.21 1092.23S918.75 1024.05 947.4 1024.05S977.75 1076.5 1005.59 1076.5S1036.93 1074.77 1063.78 1074.77S1092.88 1072.62 1121.97 1072.62S1153.34 1037.78 1180.16 1037.78S1210.06 1089.74 1238.35 1089.74S1267.84 1023.88 1296.54 1023.88S1328.16 1079.58 1354.72 1079.58S1386.11 1021.85 1412.91 1021.85L1378 1351 L-100 1351 Z"></animate>
        <animateTransform attributeName="transform" type="translate" dur="7.5s" begin="-5.25s" repeatCount="indefinite" values="0;10;0" calcMode="spline" keySplines="0.3 0 0.7 1;0.3 0 0.7 1"></animateTransform>
    </path><path d="M-100 1083.07C-68.05 1054.31 -68.99 1121.17 -39.92 1121.17S-7.18 1066.29 20.16 1066.29S51.51 1085.19 80.24 1085.19S110.91 1084.8 140.33 1084.8S171.21 1112.04 200.41 1112.04S231.44 1062.92 260.49 1062.92S292.06 1122.59 320.57 1122.59S353.62 1079.02 380.65 1079.02S411.47 1132.81 440.73 1132.81S471.57 1110.22 500.81 1110.22S531.77 1126.95 560.89 1126.95S591.35 1076.42 620.98 1076.42S652.29 1110.14 681.06 1110.14S711.75 1058.4 741.14 1058.4S773.73 1124.53 801.22 1124.53S832.21 1076.44 861.3 1076.44S891.86 1117.95 921.38 1117.95S952.32 1075.1 981.46 1075.1S1014.85 1138.41 1041.54 1138.41S1072.6 1078.86 1101.63 1078.86S1135 1111.1 1161.71 1111.1S1194.63 1079.8 1221.79 1079.8S1252.43 1131.86 1281.87 1131.86S1312.16 1058.42 1341.95 1058.42S1374.24 1122.14 1402.03 1122.14L1378 1351 L-100 1351 Z" fill="#a6a38b" stroke-width="0">
        <animate attributeName="d" dur="5s" repeatCount="indefinite" values="M-100 1083.07C-68.05 1054.31 -68.99 1121.17 -39.92 1121.17S-7.18 1066.29 20.16 1066.29S51.51 1085.19 80.24 1085.19S110.91 1084.8 140.33 1084.8S171.21 1112.04 200.41 1112.04S231.44 1062.92 260.49 1062.92S292.06 1122.59 320.57 1122.59S353.62 1079.02 380.65 1079.02S411.47 1132.81 440.73 1132.81S471.57 1110.22 500.81 1110.22S531.77 1126.95 560.89 1126.95S591.35 1076.42 620.98 1076.42S652.29 1110.14 681.06 1110.14S711.75 1058.4 741.14 1058.4S773.73 1124.53 801.22 1124.53S832.21 1076.44 861.3 1076.44S891.86 1117.95 921.38 1117.95S952.32 1075.1 981.46 1075.1S1014.85 1138.41 1041.54 1138.41S1072.6 1078.86 1101.63 1078.86S1135 1111.1 1161.71 1111.1S1194.63 1079.8 1221.79 1079.8S1252.43 1131.86 1281.87 1131.86S1312.16 1058.42 1341.95 1058.42S1374.24 1122.14 1402.03 1122.14L1378 1351 L-100 1351 Z;M-100 1082.12C-66.75 1073.61 -66.62 1114.67 -39.92 1114.67S-8.16 1114.51 20.16 1114.51S52.22 1120.33 80.24 1120.33S110.78 1054.77 140.33 1054.77S170.5 1107.84 200.41 1107.84S232.31 1054.75 260.49 1054.75S292.38 1074.24 320.57 1074.24S351.3 1075.63 380.65 1075.63S412.35 1126.1 440.73 1126.1S474.09 1083.61 500.81 1083.61S532.58 1126.34 560.89 1126.34S593.23 1058.18 620.98 1058.18S651.58 1110.26 681.06 1110.26S713.29 1085.94 741.14 1085.94S773.72 1108.36 801.22 1108.36S834.37 1085.62 861.3 1085.62S893.41 1112.82 921.38 1112.82S952.64 1078.85 981.46 1078.85S1012.22 1084.06 1041.54 1084.06S1073.81 1083.57 1101.63 1083.57S1132.41 1078.81 1161.71 1078.81S1193.73 1086.2 1221.79 1086.2S1253.9 1116.76 1281.87 1116.76S1315.03 1073.24 1341.95 1073.24S1374.22 1108.77 1402.03 1108.77L1378 1351 L-100 1351 Z;M-100 1083.07C-68.05 1054.31 -68.99 1121.17 -39.92 1121.17S-7.18 1066.29 20.16 1066.29S51.51 1085.19 80.24 1085.19S110.91 1084.8 140.33 1084.8S171.21 1112.04 200.41 1112.04S231.44 1062.92 260.49 1062.92S292.06 1122.59 320.57 1122.59S353.62 1079.02 380.65 1079.02S411.47 1132.81 440.73 1132.81S471.57 1110.22 500.81 1110.22S531.77 1126.95 560.89 1126.95S591.35 1076.42 620.98 1076.42S652.29 1110.14 681.06 1110.14S711.75 1058.4 741.14 1058.4S773.73 1124.53 801.22 1124.53S832.21 1076.44 861.3 1076.44S891.86 1117.95 921.38 1117.95S952.32 1075.1 981.46 1075.1S1014.85 1138.41 1041.54 1138.41S1072.6 1078.86 1101.63 1078.86S1135 1111.1 1161.71 1111.1S1194.63 1079.8 1221.79 1079.8S1252.43 1131.86 1281.87 1131.86S1312.16 1058.42 1341.95 1058.42S1374.24 1122.14 1402.03 1122.14L1378 1351 L-100 1351 Z"></animate>
        <animateTransform attributeName="transform" type="translate" dur="5s" begin="-4s" repeatCount="indefinite" values="0;10;0" calcMode="spline" keySplines="0.3 0 0.7 1;0.3 0 0.7 1"></animateTransform>
    </path><path d="M-100 1093.88C-66.33 1095.51 -67.73 1150.21 -37.9 1150.21S-5.07 1102.39 24.2 1102.39S57.86 1099.02 86.3 1099.02S120.55 1119.52 148.4 1119.52S180.47 1176.35 210.5 1176.35S242.34 1114.64 272.61 1114.64S306 1153.94 334.71 1153.94S366.88 1103.65 396.81 1103.65S427.86 1180.98 458.91 1180.98S491.49 1102.51 521.01 1102.51S553.6 1173.19 583.11 1173.19S615.71 1116.44 645.21 1116.44S679 1177.27 707.31 1177.27S741.06 1087.64 769.41 1087.64S801.21 1094.94 831.51 1094.94S862.84 1092.38 893.61 1092.38S925.03 1150.06 955.71 1150.06S988.09 1104.99 1017.82 1104.99S1049.63 1161.63 1079.92 1161.63S1111.1 1110.68 1142.02 1110.68S1176.32 1180.62 1204.12 1180.62S1236.65 1111.04 1266.22 1111.04S1298.55 1180.21 1328.32 1180.21S1359.44 1112.53 1390.42 1112.53L1378 1351 L-100 1351 Z" fill="#adaa91" stroke-width="0">
        <animate attributeName="d" dur="2.5s" repeatCount="indefinite" values="M-100 1093.88C-66.33 1095.51 -67.73 1150.21 -37.9 1150.21S-5.07 1102.39 24.2 1102.39S57.86 1099.02 86.3 1099.02S120.55 1119.52 148.4 1119.52S180.47 1176.35 210.5 1176.35S242.34 1114.64 272.61 1114.64S306 1153.94 334.71 1153.94S366.88 1103.65 396.81 1103.65S427.86 1180.98 458.91 1180.98S491.49 1102.51 521.01 1102.51S553.6 1173.19 583.11 1173.19S615.71 1116.44 645.21 1116.44S679 1177.27 707.31 1177.27S741.06 1087.64 769.41 1087.64S801.21 1094.94 831.51 1094.94S862.84 1092.38 893.61 1092.38S925.03 1150.06 955.71 1150.06S988.09 1104.99 1017.82 1104.99S1049.63 1161.63 1079.92 1161.63S1111.1 1110.68 1142.02 1110.68S1176.32 1180.62 1204.12 1180.62S1236.65 1111.04 1266.22 1111.04S1298.55 1180.21 1328.32 1180.21S1359.44 1112.53 1390.42 1112.53L1378 1351 L-100 1351 Z;M-100 1179.15C-68.34 1162.15 -68.15 1168.68 -37.9 1168.68S-4.01 1103.07 24.2 1103.07S57.15 1159.02 86.3 1159.02S118.88 1088.17 148.4 1088.17S181.36 1154.4 210.5 1154.4S244.2 1168.41 272.61 1168.41S306.18 1168.88 334.71 1168.88S368.9 1110.09 396.81 1110.09S429.74 1174.09 458.91 1174.09S493.19 1106.89 521.01 1106.89S552.25 1101.06 583.11 1101.06S615.1 1109.9 645.21 1109.9S679.62 1155.94 707.31 1155.94S739.45 1120.42 769.41 1120.42S800.55 1163.75 831.51 1163.75S864.23 1119.12 893.61 1119.12S926.66 1181.76 955.71 1181.76S988.8 1103.2 1017.82 1103.2S1051.51 1091.51 1079.92 1091.51S1112.75 1120.13 1142.02 1120.13S1173.16 1089.61 1204.12 1089.61S1235.86 1104.12 1266.22 1104.12S1298.47 1159.72 1328.32 1159.72S1360.64 1160.92 1390.42 1160.92L1378 1351 L-100 1351 Z;M-100 1093.88C-66.33 1095.51 -67.73 1150.21 -37.9 1150.21S-5.07 1102.39 24.2 1102.39S57.86 1099.02 86.3 1099.02S120.55 1119.52 148.4 1119.52S180.47 1176.35 210.5 1176.35S242.34 1114.64 272.61 1114.64S306 1153.94 334.71 1153.94S366.88 1103.65 396.81 1103.65S427.86 1180.98 458.91 1180.98S491.49 1102.51 521.01 1102.51S553.6 1173.19 583.11 1173.19S615.71 1116.44 645.21 1116.44S679 1177.27 707.31 1177.27S741.06 1087.64 769.41 1087.64S801.21 1094.94 831.51 1094.94S862.84 1092.38 893.61 1092.38S925.03 1150.06 955.71 1150.06S988.09 1104.99 1017.82 1104.99S1049.63 1161.63 1079.92 1161.63S1111.1 1110.68 1142.02 1110.68S1176.32 1180.62 1204.12 1180.62S1236.65 1111.04 1266.22 1111.04S1298.55 1180.21 1328.32 1180.21S1359.44 1112.53 1390.42 1112.53L1378 1351 L-100 1351 Z"></animate>
        <animateTransform attributeName="transform" type="translate" dur="2.5s" begin="-2.25s" repeatCount="indefinite" values="0;10;0" calcMode="spline" keySplines="0.3 0 0.7 1;0.3 0 0.7 1"></animateTransform>
    </path></g>
</svg>