<?xml version="1.0" encoding="UTF-8" standalone="no"?>
<svg
   xmlns:dc="http://purl.org/dc/elements/1.1/"
   xmlns:cc="http://creativecommons.org/ns#"
   xmlns:rdf="http://www.w3.org/1999/02/22-rdf-syntax-ns#"
   xmlns:svg="http://www.w3.org/2000/svg"
   xmlns="http://www.w3.org/2000/svg"
   xmlns:xlink="http://www.w3.org/1999/xlink"
   xmlns:sodipodi="http://sodipodi.sourceforge.net/DTD/sodipodi-0.dtd"
   xmlns:inkscape="http://www.inkscape.org/namespaces/inkscape"
   width="576.02802"
   height="575.9787"
   viewBox="0 0 162.56591 162.55399"
   version="1.1"
   id="svg14"
   sodipodi:docname="NATO_OTAN_Insignia.svg"
   inkscape:version="0.92.5 (2060ec1f9f, 2020-04-08)"
   style="fill:#ffffff">
  <metadata
     id="metadata20">
    <rdf:RDF>
      <cc:Work
         rdf:about="">
        <dc:format>image/svg+xml</dc:format>
        <dc:type
           rdf:resource="http://purl.org/dc/dcmitype/StillImage" />
      </cc:Work>
    </rdf:RDF>
  </metadata>
  <defs
     id="defs18" />
  <sodipodi:namedview
     pagecolor="#ffffff"
     bordercolor="#666666"
     borderopacity="1"
     objecttolerance="10"
     gridtolerance="10"
     guidetolerance="10"
     inkscape:pageopacity="0"
     inkscape:pageshadow="2"
     inkscape:window-width="1920"
     inkscape:window-height="1009"
     id="namedview16"
     showgrid="false"
     inkscape:zoom="1.0493125"
     inkscape:cx="156.81022"
     inkscape:cy="270.38424"
     inkscape:window-x="0"
     inkscape:window-y="0"
     inkscape:window-maximized="1"
     inkscape:current-layer="svg14" />
  <g
     id="g930"
     transform="translate(-33.865799)">
    <use
       id="use824"
       xlink:href="#c"
       transform="rotate(-90,115.38834,81.456985)"
       x="0"
       y="0"
       width="100%"
       height="100%"
       style="fill:#004990;fill-opacity:0.94117647" />
    <path
       inkscape:connector-curvature="0"
       id="path840"
       d="m 196.4323,80.137 v 2.2754 H 172.72535 V 80.137 Z"
       style="fill:#004990;fill-opacity:0.94117647;stroke-width:0.64169461" />
    <path
       inkscape:connector-curvature="0"
       id="path826"
       d="m 116.28835,23.707 h -2.2754 V 0 h 2.2754 z"
       style="fill:#004990;fill-opacity:0.94117647" />
    <path
       d="m 165.84835,81.357 h -50.641 l 9.1546,-9.1546 -7.9904,-35.851 c 0,-0.39688 0.37041,-0.39688 0.37041,0 l 10.663,33.549 z m -12.2,-6.48 c -2.6458,-16.034 -15.214,-28.998 -31.591,-32.041 l 1.1642,3.0427 c 13.679,3.0692 24.739,14.129 27.781,28.231 z"
       id="path828"
       inkscape:connector-curvature="0"
       style="fill:#004990;fill-opacity:0.94117647" />
    <use
       style="fill:#004990;fill-opacity:0.94117647"
       height="100%"
       width="100%"
       y="0"
       x="0"
       transform="rotate(90,115.32833,81.037)"
       xlink:href="#c"
       id="use6" />
    <path
       inkscape:connector-curvature="0"
       id="path8"
       d="m 114.00833,138.847 h 2.2754 v 23.707 h -2.2754 z"
       style="fill:#004990;fill-opacity:0.94117647" />
    <path
       style="fill:#004990;fill-opacity:0.94117647"
       inkscape:connector-curvature="0"
       id="c"
       d="m 64.44833,81.197 h 50.641 l -9.1546,9.1546 7.9904,35.851 c 0,0.39688 -0.37041,0.39688 -0.37041,0 l -10.663,-33.549 z m 12.2,6.48 c 2.6458,16.034 15.214,28.998 31.591,32.041 l -1.1642,-3.0427 c -13.679,-3.0692 -24.739,-14.129 -27.781,-28.231 z" />
    <path
       id="path12"
       d="M 108.60833,42.307 C 92.230333,44.9793 79.292333,57.944 76.646333,73.951 l 3.0427,-1.1377 c 3.0427,-13.732 14.076,-24.791 27.780997,-27.464 z"
       inkscape:connector-curvature="0"
       style="fill:#004990;fill-opacity:0.94117647" />
    <path
       inkscape:connector-curvature="0"
       id="path844-3"
       d="M 33.864381,82.417 V 80.1416 H 57.57133 v 2.2754 z"
       style="fill:#004990;fill-opacity:0.94117647;stroke-width:0.64169466" />
  </g>
</svg>
